<mxfile host="65bd71144e">
    <diagram id="S9_ol3plgFHYAdwla_OP" name="Page-1">
        <mxGraphModel dx="2530" dy="1198" grid="0" gridSize="10" guides="1" tooltips="1" connect="1" arrows="1" fold="1" page="1" pageScale="1" pageWidth="850" pageHeight="1100" background="#FFFFFF" math="0" shadow="0">
            <root>
                <mxCell id="0"/>
                <mxCell id="1" parent="0"/>
                <mxCell id="4" style="edgeStyle=none;html=1;exitX=0.5;exitY=1;exitDx=0;exitDy=0;entryX=0.5;entryY=0;entryDx=0;entryDy=0;fillColor=none;strokeColor=#000000;fontColor=#000000;labelBackgroundColor=none;" parent="1" source="2" target="3" edge="1">
                    <mxGeometry relative="1" as="geometry"/>
                </mxCell>
                <mxCell id="2" value="НАЧАЛО" style="ellipse;whiteSpace=wrap;html=1;fillColor=none;strokeColor=#000000;fontColor=#000000;labelBackgroundColor=none;" parent="1" vertex="1">
                    <mxGeometry x="-19" y="90" width="120" height="80" as="geometry"/>
                </mxCell>
                <mxCell id="6" value="" style="edgeStyle=none;html=1;entryX=0.5;entryY=0;entryDx=0;entryDy=0;fillColor=none;strokeColor=#000000;fontColor=#000000;labelBackgroundColor=none;" parent="1" source="3" target="13" edge="1">
                    <mxGeometry relative="1" as="geometry">
                        <mxPoint x="41" y="280" as="targetPoint"/>
                    </mxGeometry>
                </mxCell>
                <mxCell id="3" value="Блок данных M 64 бит&lt;br&gt;ключи K1, K2, K3" style="shape=parallelogram;perimeter=parallelogramPerimeter;whiteSpace=wrap;html=1;fixedSize=1;fillColor=none;strokeColor=#000000;fontColor=#000000;labelBackgroundColor=none;" parent="1" vertex="1">
                    <mxGeometry x="-39" y="200" width="160" height="60" as="geometry"/>
                </mxCell>
                <mxCell id="8" value="" style="edgeStyle=none;html=1;exitX=0.5;exitY=1;exitDx=0;exitDy=0;entryX=0.5;entryY=0;entryDx=0;entryDy=0;fillColor=none;strokeColor=#000000;fontColor=#000000;labelBackgroundColor=none;" parent="1" source="13" target="14" edge="1">
                    <mxGeometry relative="1" as="geometry">
                        <mxPoint x="41" y="360" as="sourcePoint"/>
                        <mxPoint x="41" y="380" as="targetPoint"/>
                    </mxGeometry>
                </mxCell>
                <mxCell id="10" value="" style="edgeStyle=none;html=1;exitX=0.5;exitY=1;exitDx=0;exitDy=0;entryX=0.5;entryY=0;entryDx=0;entryDy=0;fillColor=none;strokeColor=#000000;fontColor=#000000;labelBackgroundColor=none;" parent="1" source="14" target="15" edge="1">
                    <mxGeometry relative="1" as="geometry">
                        <mxPoint x="41" y="460" as="sourcePoint"/>
                        <mxPoint x="41" y="480" as="targetPoint"/>
                    </mxGeometry>
                </mxCell>
                <mxCell id="12" style="edgeStyle=none;html=1;exitX=0.5;exitY=1;exitDx=0;exitDy=0;entryX=0.5;entryY=0;entryDx=0;entryDy=0;fillColor=none;strokeColor=#000000;fontColor=#000000;labelBackgroundColor=none;" parent="1" source="15" target="11" edge="1">
                    <mxGeometry relative="1" as="geometry">
                        <mxPoint x="41" y="560" as="sourcePoint"/>
                        <Array as="points"/>
                    </mxGeometry>
                </mxCell>
                <mxCell id="17" style="edgeStyle=none;html=1;entryX=0.5;entryY=0;entryDx=0;entryDy=0;fillColor=none;strokeColor=#000000;fontColor=#000000;labelBackgroundColor=none;" parent="1" source="11" target="18" edge="1">
                    <mxGeometry relative="1" as="geometry">
                        <mxPoint x="41" y="710" as="targetPoint"/>
                    </mxGeometry>
                </mxCell>
                <mxCell id="11" value="ШИФРОТЕКСТ" style="shape=parallelogram;perimeter=parallelogramPerimeter;whiteSpace=wrap;html=1;fixedSize=1;fillColor=none;strokeColor=#000000;fontColor=#000000;labelBackgroundColor=none;" parent="1" vertex="1">
                    <mxGeometry x="-19" y="600" width="120" height="60" as="geometry"/>
                </mxCell>
                <mxCell id="13" value="C = DES ШИФРОВАНИЕ (M, K1)" style="rounded=0;whiteSpace=wrap;html=1;fillColor=none;strokeColor=#000000;fontColor=#000000;labelBackgroundColor=none;" parent="1" vertex="1">
                    <mxGeometry x="-59" y="290" width="200" height="60" as="geometry"/>
                </mxCell>
                <mxCell id="14" value="C = DES ШИФРОВАНИЕ (С, K2)" style="rounded=0;whiteSpace=wrap;html=1;fillColor=none;strokeColor=#000000;fontColor=#000000;labelBackgroundColor=none;" parent="1" vertex="1">
                    <mxGeometry x="-59" y="390" width="200" height="60" as="geometry"/>
                </mxCell>
                <mxCell id="15" value="C = DES ШИФРОВАНИЕ (С, K3)" style="rounded=0;whiteSpace=wrap;html=1;fillColor=none;strokeColor=#000000;fontColor=#000000;labelBackgroundColor=none;" parent="1" vertex="1">
                    <mxGeometry x="-59" y="490" width="200" height="60" as="geometry"/>
                </mxCell>
                <mxCell id="18" value="КОНЕЦ" style="ellipse;whiteSpace=wrap;html=1;fillColor=none;strokeColor=#000000;fontColor=#000000;labelBackgroundColor=none;" parent="1" vertex="1">
                    <mxGeometry x="-19" y="710" width="120" height="80" as="geometry"/>
                </mxCell>
                <mxCell id="19" style="edgeStyle=none;html=1;exitX=0.5;exitY=1;exitDx=0;exitDy=0;entryX=0.5;entryY=0;entryDx=0;entryDy=0;fillColor=none;strokeColor=#000000;fontColor=#000000;labelBackgroundColor=none;" parent="1" source="20" target="22" edge="1">
                    <mxGeometry relative="1" as="geometry"/>
                </mxCell>
                <mxCell id="20" value="НАЧАЛО" style="ellipse;whiteSpace=wrap;html=1;fillColor=none;strokeColor=#000000;fontColor=#000000;labelBackgroundColor=none;" parent="1" vertex="1">
                    <mxGeometry x="338" y="90" width="120" height="80" as="geometry"/>
                </mxCell>
                <mxCell id="21" value="" style="edgeStyle=none;html=1;entryX=0.5;entryY=0;entryDx=0;entryDy=0;fillColor=none;strokeColor=#000000;fontColor=#000000;labelBackgroundColor=none;" parent="1" source="22" target="28" edge="1">
                    <mxGeometry relative="1" as="geometry">
                        <mxPoint x="398" y="280" as="targetPoint"/>
                    </mxGeometry>
                </mxCell>
                <mxCell id="22" value="Блок данных M 64 бит&lt;br&gt;ключи K1, K2, K3" style="shape=parallelogram;perimeter=parallelogramPerimeter;whiteSpace=wrap;html=1;fixedSize=1;fillColor=none;strokeColor=#000000;fontColor=#000000;labelBackgroundColor=none;" parent="1" vertex="1">
                    <mxGeometry x="318" y="200" width="160" height="60" as="geometry"/>
                </mxCell>
                <mxCell id="23" value="" style="edgeStyle=none;html=1;exitX=0.5;exitY=1;exitDx=0;exitDy=0;entryX=0.5;entryY=0;entryDx=0;entryDy=0;fillColor=none;strokeColor=#000000;fontColor=#000000;labelBackgroundColor=none;" parent="1" source="28" target="29" edge="1">
                    <mxGeometry relative="1" as="geometry">
                        <mxPoint x="398" y="360" as="sourcePoint"/>
                        <mxPoint x="398" y="380" as="targetPoint"/>
                    </mxGeometry>
                </mxCell>
                <mxCell id="24" value="" style="edgeStyle=none;html=1;exitX=0.5;exitY=1;exitDx=0;exitDy=0;entryX=0.5;entryY=0;entryDx=0;entryDy=0;fillColor=none;strokeColor=#000000;fontColor=#000000;labelBackgroundColor=none;" parent="1" source="29" target="30" edge="1">
                    <mxGeometry relative="1" as="geometry">
                        <mxPoint x="398" y="460" as="sourcePoint"/>
                        <mxPoint x="398" y="480" as="targetPoint"/>
                    </mxGeometry>
                </mxCell>
                <mxCell id="25" style="edgeStyle=none;html=1;exitX=0.5;exitY=1;exitDx=0;exitDy=0;entryX=0.5;entryY=0;entryDx=0;entryDy=0;fillColor=none;strokeColor=#000000;fontColor=#000000;labelBackgroundColor=none;" parent="1" source="30" target="27" edge="1">
                    <mxGeometry relative="1" as="geometry">
                        <mxPoint x="398" y="560" as="sourcePoint"/>
                        <Array as="points"/>
                    </mxGeometry>
                </mxCell>
                <mxCell id="26" style="edgeStyle=none;html=1;entryX=0.5;entryY=0;entryDx=0;entryDy=0;fillColor=none;strokeColor=#000000;fontColor=#000000;labelBackgroundColor=none;" parent="1" source="27" target="31" edge="1">
                    <mxGeometry relative="1" as="geometry">
                        <mxPoint x="398" y="710" as="targetPoint"/>
                    </mxGeometry>
                </mxCell>
                <mxCell id="27" value="ШИФРОТЕКСТ" style="shape=parallelogram;perimeter=parallelogramPerimeter;whiteSpace=wrap;html=1;fixedSize=1;fillColor=none;strokeColor=#000000;fontColor=#000000;labelBackgroundColor=none;" parent="1" vertex="1">
                    <mxGeometry x="338" y="600" width="120" height="60" as="geometry"/>
                </mxCell>
                <mxCell id="28" value="C = DES ШИФРОВАНИЕ (M, K1)" style="rounded=0;whiteSpace=wrap;html=1;fillColor=none;strokeColor=#000000;fontColor=#000000;labelBackgroundColor=none;" parent="1" vertex="1">
                    <mxGeometry x="298" y="290" width="200" height="60" as="geometry"/>
                </mxCell>
                <mxCell id="29" value="C = DES РАСШИФРОВАНИЕ (С, K2)" style="rounded=0;whiteSpace=wrap;html=1;fillColor=none;strokeColor=#000000;fontColor=#000000;labelBackgroundColor=none;" parent="1" vertex="1">
                    <mxGeometry x="298" y="390" width="200" height="60" as="geometry"/>
                </mxCell>
                <mxCell id="30" value="C = DES ШИФРОВАНИЕ (С, K3)" style="rounded=0;whiteSpace=wrap;html=1;fillColor=none;strokeColor=#000000;fontColor=#000000;labelBackgroundColor=none;" parent="1" vertex="1">
                    <mxGeometry x="298" y="490" width="200" height="60" as="geometry"/>
                </mxCell>
                <mxCell id="31" value="КОНЕЦ" style="ellipse;whiteSpace=wrap;html=1;fillColor=none;strokeColor=#000000;fontColor=#000000;labelBackgroundColor=none;" parent="1" vertex="1">
                    <mxGeometry x="338" y="710" width="120" height="80" as="geometry"/>
                </mxCell>
                <mxCell id="32" style="edgeStyle=none;html=1;exitX=0.5;exitY=1;exitDx=0;exitDy=0;entryX=0.5;entryY=0;entryDx=0;entryDy=0;fillColor=none;strokeColor=#000000;fontColor=#000000;labelBackgroundColor=none;" parent="1" source="33" target="35" edge="1">
                    <mxGeometry relative="1" as="geometry"/>
                </mxCell>
                <mxCell id="33" value="НАЧАЛО" style="ellipse;whiteSpace=wrap;html=1;fillColor=none;strokeColor=#000000;fontColor=#000000;labelBackgroundColor=none;" parent="1" vertex="1">
                    <mxGeometry x="681" y="90" width="120" height="80" as="geometry"/>
                </mxCell>
                <mxCell id="34" value="" style="edgeStyle=none;html=1;entryX=0.5;entryY=0;entryDx=0;entryDy=0;fillColor=none;strokeColor=#000000;fontColor=#000000;labelBackgroundColor=none;" parent="1" source="35" target="41" edge="1">
                    <mxGeometry relative="1" as="geometry">
                        <mxPoint x="741" y="280" as="targetPoint"/>
                    </mxGeometry>
                </mxCell>
                <mxCell id="35" value="Блок данных M 64 бит&lt;br&gt;ключи K1, K2" style="shape=parallelogram;perimeter=parallelogramPerimeter;whiteSpace=wrap;html=1;fixedSize=1;fillColor=none;strokeColor=#000000;fontColor=#000000;labelBackgroundColor=none;" parent="1" vertex="1">
                    <mxGeometry x="661" y="200" width="160" height="60" as="geometry"/>
                </mxCell>
                <mxCell id="36" value="" style="edgeStyle=none;html=1;exitX=0.5;exitY=1;exitDx=0;exitDy=0;entryX=0.5;entryY=0;entryDx=0;entryDy=0;fillColor=none;strokeColor=#000000;fontColor=#000000;labelBackgroundColor=none;" parent="1" source="41" target="42" edge="1">
                    <mxGeometry relative="1" as="geometry">
                        <mxPoint x="741" y="360" as="sourcePoint"/>
                        <mxPoint x="741" y="380" as="targetPoint"/>
                    </mxGeometry>
                </mxCell>
                <mxCell id="37" value="" style="edgeStyle=none;html=1;exitX=0.5;exitY=1;exitDx=0;exitDy=0;entryX=0.5;entryY=0;entryDx=0;entryDy=0;fillColor=none;strokeColor=#000000;fontColor=#000000;labelBackgroundColor=none;" parent="1" source="42" target="43" edge="1">
                    <mxGeometry relative="1" as="geometry">
                        <mxPoint x="741" y="460" as="sourcePoint"/>
                        <mxPoint x="741" y="480" as="targetPoint"/>
                    </mxGeometry>
                </mxCell>
                <mxCell id="38" style="edgeStyle=none;html=1;exitX=0.5;exitY=1;exitDx=0;exitDy=0;entryX=0.5;entryY=0;entryDx=0;entryDy=0;fillColor=none;strokeColor=#000000;fontColor=#000000;labelBackgroundColor=none;" parent="1" source="43" target="40" edge="1">
                    <mxGeometry relative="1" as="geometry">
                        <mxPoint x="741" y="560" as="sourcePoint"/>
                        <Array as="points"/>
                    </mxGeometry>
                </mxCell>
                <mxCell id="39" style="edgeStyle=none;html=1;entryX=0.5;entryY=0;entryDx=0;entryDy=0;fillColor=none;strokeColor=#000000;fontColor=#000000;labelBackgroundColor=none;" parent="1" source="40" target="44" edge="1">
                    <mxGeometry relative="1" as="geometry">
                        <mxPoint x="741" y="710" as="targetPoint"/>
                    </mxGeometry>
                </mxCell>
                <mxCell id="40" value="ШИФРОТЕКСТ" style="shape=parallelogram;perimeter=parallelogramPerimeter;whiteSpace=wrap;html=1;fixedSize=1;fillColor=none;strokeColor=#000000;fontColor=#000000;labelBackgroundColor=none;" parent="1" vertex="1">
                    <mxGeometry x="681" y="600" width="120" height="60" as="geometry"/>
                </mxCell>
                <mxCell id="41" value="C = DES ШИФРОВАНИЕ (M, K1)" style="rounded=0;whiteSpace=wrap;html=1;fillColor=none;strokeColor=#000000;fontColor=#000000;labelBackgroundColor=none;" parent="1" vertex="1">
                    <mxGeometry x="641" y="290" width="200" height="60" as="geometry"/>
                </mxCell>
                <mxCell id="42" value="C = DES ШИФРОВАНИЕ (С, K2)" style="rounded=0;whiteSpace=wrap;html=1;fillColor=none;strokeColor=#000000;fontColor=#000000;labelBackgroundColor=none;" parent="1" vertex="1">
                    <mxGeometry x="641" y="390" width="200" height="60" as="geometry"/>
                </mxCell>
                <mxCell id="43" value="C = DES ШИФРОВАНИЕ (С, K1)" style="rounded=0;whiteSpace=wrap;html=1;fillColor=none;strokeColor=#000000;fontColor=#000000;labelBackgroundColor=none;" parent="1" vertex="1">
                    <mxGeometry x="641" y="490" width="200" height="60" as="geometry"/>
                </mxCell>
                <mxCell id="44" value="КОНЕЦ" style="ellipse;whiteSpace=wrap;html=1;fillColor=none;strokeColor=#000000;fontColor=#000000;labelBackgroundColor=none;" parent="1" vertex="1">
                    <mxGeometry x="681" y="710" width="120" height="80" as="geometry"/>
                </mxCell>
                <mxCell id="45" style="edgeStyle=none;html=1;exitX=0.5;exitY=1;exitDx=0;exitDy=0;entryX=0.5;entryY=0;entryDx=0;entryDy=0;fillColor=none;strokeColor=#000000;fontColor=#000000;labelBackgroundColor=none;" parent="1" source="46" target="48" edge="1">
                    <mxGeometry relative="1" as="geometry"/>
                </mxCell>
                <mxCell id="46" value="НАЧАЛО" style="ellipse;whiteSpace=wrap;html=1;fillColor=none;strokeColor=#000000;fontColor=#000000;labelBackgroundColor=none;" parent="1" vertex="1">
                    <mxGeometry x="992" y="90" width="120" height="80" as="geometry"/>
                </mxCell>
                <mxCell id="47" value="" style="edgeStyle=none;html=1;entryX=0.5;entryY=0;entryDx=0;entryDy=0;fillColor=none;strokeColor=#000000;fontColor=#000000;labelBackgroundColor=none;" parent="1" source="48" target="54" edge="1">
                    <mxGeometry relative="1" as="geometry">
                        <mxPoint x="1052" y="280" as="targetPoint"/>
                    </mxGeometry>
                </mxCell>
                <mxCell id="48" value="Блок данных M 64 бит&lt;br&gt;ключи K1, K2" style="shape=parallelogram;perimeter=parallelogramPerimeter;whiteSpace=wrap;html=1;fixedSize=1;fillColor=none;strokeColor=#000000;fontColor=#000000;labelBackgroundColor=none;" parent="1" vertex="1">
                    <mxGeometry x="972" y="200" width="160" height="60" as="geometry"/>
                </mxCell>
                <mxCell id="49" value="" style="edgeStyle=none;html=1;exitX=0.5;exitY=1;exitDx=0;exitDy=0;entryX=0.5;entryY=0;entryDx=0;entryDy=0;fillColor=none;strokeColor=#000000;fontColor=#000000;labelBackgroundColor=none;" parent="1" source="54" target="55" edge="1">
                    <mxGeometry relative="1" as="geometry">
                        <mxPoint x="1052" y="360" as="sourcePoint"/>
                        <mxPoint x="1052" y="380" as="targetPoint"/>
                    </mxGeometry>
                </mxCell>
                <mxCell id="50" value="" style="edgeStyle=none;html=1;exitX=0.5;exitY=1;exitDx=0;exitDy=0;entryX=0.5;entryY=0;entryDx=0;entryDy=0;fillColor=none;strokeColor=#000000;fontColor=#000000;labelBackgroundColor=none;" parent="1" source="55" target="56" edge="1">
                    <mxGeometry relative="1" as="geometry">
                        <mxPoint x="1052" y="460" as="sourcePoint"/>
                        <mxPoint x="1052" y="480" as="targetPoint"/>
                    </mxGeometry>
                </mxCell>
                <mxCell id="51" style="edgeStyle=none;html=1;exitX=0.5;exitY=1;exitDx=0;exitDy=0;entryX=0.5;entryY=0;entryDx=0;entryDy=0;fillColor=none;strokeColor=#000000;fontColor=#000000;labelBackgroundColor=none;" parent="1" source="56" target="53" edge="1">
                    <mxGeometry relative="1" as="geometry">
                        <mxPoint x="1052" y="560" as="sourcePoint"/>
                        <Array as="points"/>
                    </mxGeometry>
                </mxCell>
                <mxCell id="52" style="edgeStyle=none;html=1;entryX=0.5;entryY=0;entryDx=0;entryDy=0;fillColor=none;strokeColor=#000000;fontColor=#000000;labelBackgroundColor=none;" parent="1" source="53" target="57" edge="1">
                    <mxGeometry relative="1" as="geometry">
                        <mxPoint x="1052" y="710" as="targetPoint"/>
                    </mxGeometry>
                </mxCell>
                <mxCell id="53" value="ШИФРОТЕКСТ" style="shape=parallelogram;perimeter=parallelogramPerimeter;whiteSpace=wrap;html=1;fixedSize=1;fillColor=none;strokeColor=#000000;fontColor=#000000;labelBackgroundColor=none;" parent="1" vertex="1">
                    <mxGeometry x="992" y="600" width="120" height="60" as="geometry"/>
                </mxCell>
                <mxCell id="54" value="C = DES ШИФРОВАНИЕ (M, K1)" style="rounded=0;whiteSpace=wrap;html=1;fillColor=none;strokeColor=#000000;fontColor=#000000;labelBackgroundColor=none;" parent="1" vertex="1">
                    <mxGeometry x="952" y="290" width="200" height="60" as="geometry"/>
                </mxCell>
                <mxCell id="55" value="C = DES РАСШИФРОВАНИЕ (С, K2)" style="rounded=0;whiteSpace=wrap;html=1;fillColor=none;strokeColor=#000000;fontColor=#000000;labelBackgroundColor=none;" parent="1" vertex="1">
                    <mxGeometry x="952" y="390" width="200" height="60" as="geometry"/>
                </mxCell>
                <mxCell id="56" value="C = DES ШИФРОВАНИЕ (С, K1)" style="rounded=0;whiteSpace=wrap;html=1;fillColor=none;strokeColor=#000000;fontColor=#000000;labelBackgroundColor=none;" parent="1" vertex="1">
                    <mxGeometry x="952" y="490" width="200" height="60" as="geometry"/>
                </mxCell>
                <mxCell id="57" value="КОНЕЦ" style="ellipse;whiteSpace=wrap;html=1;fillColor=none;strokeColor=#000000;fontColor=#000000;labelBackgroundColor=none;" parent="1" vertex="1">
                    <mxGeometry x="992" y="710" width="120" height="80" as="geometry"/>
                </mxCell>
                <mxCell id="58" value="DES-EEE3" style="text;html=1;align=center;verticalAlign=middle;resizable=0;points=[];autosize=1;fillColor=none;strokeColor=none;fontColor=#000000;labelBackgroundColor=none;fontSize=18;fontStyle=1" parent="1" vertex="1">
                    <mxGeometry x="-10" y="40" width="107" height="34" as="geometry"/>
                </mxCell>
                <mxCell id="59" value="DES-EDE3" style="text;html=1;align=center;verticalAlign=middle;resizable=0;points=[];autosize=1;fillColor=none;strokeColor=none;fontColor=#000000;labelBackgroundColor=none;fontSize=18;fontStyle=1" parent="1" vertex="1">
                    <mxGeometry x="347" y="40" width="108" height="34" as="geometry"/>
                </mxCell>
                <mxCell id="60" value="DES-EEE2" style="text;html=1;align=center;verticalAlign=middle;resizable=0;points=[];autosize=1;fillColor=none;strokeColor=none;fontColor=#000000;labelBackgroundColor=none;fontSize=18;fontStyle=1" parent="1" vertex="1">
                    <mxGeometry x="690" y="40" width="107" height="34" as="geometry"/>
                </mxCell>
                <mxCell id="61" value="DES-EDE2" style="text;html=1;align=center;verticalAlign=middle;resizable=0;points=[];autosize=1;fillColor=none;strokeColor=none;fontColor=#000000;labelBackgroundColor=none;fontSize=18;fontStyle=1" parent="1" vertex="1">
                    <mxGeometry x="1001" y="40" width="108" height="34" as="geometry"/>
                </mxCell>
            </root>
        </mxGraphModel>
    </diagram>
</mxfile>